<?xml version="1.0" encoding="UTF-8" standalone="no"?>
<!DOCTYPE svg PUBLIC "-//W3C//DTD SVG 1.1//EN" "http://www.w3.org/Graphics/SVG/1.1/DTD/svg11.dtd">
<svg xmlns="http://www.w3.org/2000/svg" xmlns:xlink="http://www.w3.org/1999/xlink" version="1.1" width="1280pt" height="1024pt" viewBox="0 0 1280 1024">
<g enable-background="new">
<g id="Layer-1" data-name="Layer 1">
</g>
<g id="Layer-1" data-name="Layer 2">
<clipPath id="cp0">
<path transform="matrix(1,0,0,-1,0,1024)" d="M 0 1024 L 1280 1024 L 1280 0 L 0 0 Z "/>
</clipPath>
<g clip-path="url(#cp0)">
<path transform="matrix(1,0,0,-1,615.8379,77.55127)" d="M 0 0 C -216.261 0 -391.575 -175.314 -391.575 -391.575 C -391.575 -493.195 -352.86 -585.767 -289.383 -655.364 L -289.403 -655.348 C -289.403 -655.348 -238.962 -718.02 -359.685 -756.282 C -359.685 -756.282 -263.767 -783.119 -179.587 -739.615 C -125.794 -767.428 -64.735 -783.15 0 -783.15 C 216.261 -783.15 391.575 -607.836 391.575 -391.575 C 391.575 -175.314 216.261 0 0 0 " fill="#460a64"/>
<path transform="matrix(1,0,0,-1,615.8379,77.15143)" d="M 0 0 C 29.548 .02 59.102 -3.251 87.93 -9.786 C 116.754 -16.302 144.931 -25.91 171.591 -38.773 C 198.255 -51.616 223.499 -67.437 246.729 -85.844 C 270.032 -104.178 291.017 -125.421 309.562 -148.588 L 313.033 -152.941 L 314.77 -155.118 C 315.357 -155.836 315.925 -156.571 316.455 -157.333 L 322.975 -166.361 L 326.235 -170.877 C 327.322 -172.382 328.282 -173.974 329.312 -175.519 L 335.394 -184.854 L 336.914 -187.189 C 337.418 -187.969 337.861 -188.787 338.338 -189.583 L 341.15 -194.393 L 346.775 -204.018 L 351.93 -213.903 L 354.507 -218.847 C 354.928 -219.675 355.385 -220.487 355.776 -221.329 L 356.944 -223.86 L 361.612 -233.99 C 362.375 -235.686 363.202 -237.354 363.912 -239.072 L 365.996 -244.246 L 370.163 -254.597 C 370.896 -256.309 371.449 -258.086 372.072 -259.839 L 373.896 -265.113 C 375.081 -268.639 376.372 -272.132 377.472 -275.687 L 380.577 -286.409 C 382.81 -293.518 384.293 -300.821 386.057 -308.054 C 386.459 -309.871 386.969 -311.666 387.283 -313.501 L 388.294 -318.993 L 390.314 -329.98 C 390.692 -331.805 390.884 -333.659 391.14 -335.502 L 391.873 -341.04 C 392.352 -344.733 392.874 -348.422 393.298 -352.122 L 394.181 -363.26 L 394.621 -368.83 L 394.842 -371.615 L 394.923 -374.407 L 395.24 -385.577 L 395.398 -391.163 C 395.439 -393.024 395.34 -394.886 395.316 -396.749 L 395.069 -407.922 C 395.002 -409.783 395.046 -411.65 394.886 -413.507 L 394.48 -419.082 L 393.667 -430.231 C 393.568 -432.094 393.322 -433.941 393.09 -435.79 L 392.401 -441.338 L 390.99 -452.43 L 389.035 -463.44 L 388.057 -468.945 L 387.567 -471.698 L 386.941 -474.423 L 384.437 -485.322 L 383.184 -490.772 L 381.666 -496.153 L 378.62 -506.915 L 377.858 -509.605 L 376.967 -512.256 L 375.18 -517.555 L 371.597 -528.149 L 367.505 -538.56 L 365.458 -543.764 C 365.108 -544.628 364.793 -545.506 364.416 -546.358 L 363.267 -548.907 L 358.669 -559.104 C 357.888 -560.797 357.167 -562.519 356.336 -564.187 L 353.792 -569.167 L 348.702 -579.128 C 347.89 -580.808 346.9 -582.391 345.989 -584.017 L 343.206 -588.868 L 340.423 -593.72 C 339.477 -595.325 338.613 -596.981 337.572 -598.53 L 331.545 -607.953 L 328.52 -612.657 C 327.492 -614.212 326.37 -615.704 325.301 -617.23 L 318.806 -626.337 L 317.182 -628.613 L 315.457 -630.814 L 311.996 -635.207 C 309.683 -638.13 307.396 -641.075 305.058 -643.979 C 266.829 -689.716 218.561 -727.251 164.121 -751.646 C 136.981 -763.944 108.475 -773.226 79.281 -779.151 L 68.281 -781.094 L 62.781 -782.063 L 60.031 -782.541 L 57.261 -782.888 L 46.179 -784.273 L 40.639 -784.965 L 35.072 -785.39 C 27.646 -785.902 20.232 -786.647 12.784 -786.655 L 1.624 -786.914 C -.236 -786.992 -2.097 -786.898 -3.957 -786.884 L -9.538 -786.787 C -39.292 -786.004 -68.961 -781.906 -97.783 -774.499 C -126.609 -767.108 -154.58 -756.415 -180.982 -742.712 L -178.193 -742.712 L -183.458 -745.276 L -186.09 -746.558 L -188.771 -747.73 L -194.14 -750.063 L -199.594 -752.179 L -202.323 -753.231 L -205.089 -754.18 L -210.624 -756.064 L -216.225 -757.737 C -217.16 -758.011 -218.088 -758.306 -219.028 -758.561 L -221.856 -759.294 C -236.918 -763.289 -252.353 -765.711 -267.845 -766.883 C -283.345 -768.047 -298.914 -767.908 -314.382 -766.685 C -322.118 -766.063 -329.827 -765.15 -337.497 -763.948 C -341.333 -763.358 -345.155 -762.669 -348.968 -761.91 C -352.795 -761.138 -356.544 -760.322 -360.413 -759.284 L -369.246 -756.915 L -360.501 -754.105 C -348.935 -750.388 -337.543 -746.115 -326.722 -740.753 C -325.375 -740.073 -323.996 -739.449 -322.677 -738.723 L -318.74 -736.512 C -316.069 -735.105 -313.603 -733.399 -311.063 -731.798 C -309.773 -731.024 -308.608 -730.089 -307.396 -729.214 C -306.206 -728.312 -304.956 -727.478 -303.814 -726.522 L -300.412 -723.632 L -299.561 -722.91 L -298.768 -722.132 L -297.188 -720.569 C -293.005 -716.393 -289.293 -711.75 -286.565 -706.593 C -283.827 -701.45 -282.126 -695.812 -281.642 -690.049 C -281.589 -689.328 -281.516 -688.608 -281.477 -687.886 L -281.484 -685.714 L -281.486 -684.628 L -281.57 -683.543 L -281.745 -681.374 C -282.145 -678.498 -282.661 -675.621 -283.559 -672.833 C -284.427 -670.042 -285.504 -667.306 -286.808 -664.677 C -287.469 -663.367 -288.163 -662.073 -288.922 -660.824 C -289.657 -659.587 -290.515 -658.312 -291.302 -657.276 L -302.362 -642.708 L -287.921 -653.814 L -287.901 -653.83 L -291.183 -657.406 C -303.86 -643.3 -315.576 -628.35 -326.238 -612.677 L -334.031 -600.786 L -341.283 -588.558 L -343.094 -585.5 L -344.773 -582.367 L -348.115 -576.094 L -351.456 -569.821 C -352.501 -567.695 -353.499 -565.545 -354.522 -563.409 L -357.573 -556.989 L -359.098 -553.78 C -359.602 -552.708 -360.028 -551.602 -360.497 -550.515 L -366.003 -537.41 C -369.292 -528.526 -372.729 -519.688 -375.407 -510.596 L -377.542 -503.818 C -377.917 -502.694 -378.225 -501.551 -378.52 -500.403 L -379.428 -496.969 L -381.243 -490.1 L -382.151 -486.665 C -382.459 -485.522 -382.764 -484.378 -382.992 -483.215 L -385.975 -469.323 C -386.517 -467.017 -386.878 -464.675 -387.263 -462.339 L -388.425 -455.33 C -400.375 -380.521 -390.398 -302.322 -359.418 -233.275 C -328.626 -164.164 -277.392 -104.52 -214.029 -63.49 C -198.301 -53.049 -181.576 -44.194 -164.505 -36.202 C -160.197 -34.284 -155.927 -32.276 -151.588 -30.433 L -138.423 -25.254 L -135.131 -23.96 C -134.027 -23.546 -132.901 -23.196 -131.787 -22.811 L -125.084 -20.549 L -118.382 -18.288 L -116.707 -17.723 C -116.145 -17.546 -115.574 -17.397 -115.008 -17.233 L -111.605 -16.27 L -97.994 -12.417 L -84.211 -9.231 L -80.766 -8.433 L -79.043 -8.034 L -77.303 -7.719 L -70.341 -6.47 L -63.379 -5.222 L -59.897 -4.598 L -56.391 -4.139 L -42.358 -2.345 C -40.025 -1.993 -37.667 -1.884 -35.317 -1.687 L -28.265 -1.146 L -21.212 -.604 C -18.86 -.438 -16.499 -.453 -14.143 -.368 Z M 0 -.8 L -14.115 -1.146 C -16.467 -1.228 -18.823 -1.209 -21.171 -1.372 L -28.211 -1.902 L -35.251 -2.433 C -37.596 -2.625 -39.95 -2.73 -42.28 -3.078 L -56.289 -4.848 L -59.79 -5.301 L -63.266 -5.919 L -70.217 -7.155 L -77.168 -8.391 L -78.906 -8.703 L -80.626 -9.099 L -84.066 -9.89 L -97.826 -13.066 L -111.407 -16.936 L -114.803 -17.902 C -115.367 -18.067 -115.937 -18.217 -116.498 -18.394 L -118.169 -18.961 L -124.855 -21.23 L -131.541 -23.499 C -132.652 -23.885 -133.776 -24.236 -134.877 -24.651 L -138.16 -25.949 L -151.292 -31.139 C -155.619 -32.987 -159.877 -34.998 -164.173 -36.919 C -181.194 -44.93 -197.808 -53.904 -213.44 -64.393 C -229.108 -74.793 -244.26 -86.042 -258.221 -98.662 C -272.222 -111.203 -285.622 -124.483 -297.612 -138.978 C -309.65 -153.404 -320.987 -168.47 -330.761 -184.53 C -340.602 -200.523 -349.646 -217.055 -356.994 -234.347 C -364.447 -251.572 -370.953 -269.244 -375.75 -287.397 L -377.652 -294.174 C -378.206 -296.454 -378.702 -298.748 -379.23 -301.033 L -380.792 -307.896 L -381.573 -311.327 C -381.837 -312.47 -382.105 -313.612 -382.285 -314.772 L -384.716 -328.635 L -385.325 -332.1 C -385.519 -333.256 -385.627 -334.426 -385.782 -335.588 L -386.647 -342.571 C -388.01 -351.86 -388.454 -361.241 -389.179 -370.591 C -389.29 -371.759 -389.299 -372.933 -389.324 -374.105 L -389.402 -377.622 L -389.559 -384.654 L -389.715 -391.687 L -389.541 -398.718 L -389.352 -405.749 C -389.26 -408.091 -389.299 -410.439 -389.071 -412.775 L -388.025 -426.8 C -387.897 -429.142 -387.581 -431.466 -387.295 -433.792 L -386.442 -440.771 L -385.596 -447.751 L -384.423 -454.683 L -383.248 -461.613 C -382.858 -463.924 -382.493 -466.239 -381.948 -468.521 L -378.947 -482.255 C -378.718 -483.404 -378.412 -484.535 -378.103 -485.666 L -377.192 -489.06 L -375.371 -495.849 L -374.461 -499.243 C -374.167 -500.377 -373.858 -501.507 -373.482 -502.617 L -371.346 -509.313 C -368.667 -518.298 -365.231 -527.025 -361.95 -535.799 L -356.459 -548.735 C -355.991 -549.81 -355.566 -550.901 -355.064 -551.96 L -353.544 -555.127 L -350.504 -561.462 L -347.452 -567.79 L -344.126 -573.979 L -340.801 -580.169 L -339.13 -583.259 L -337.329 -586.274 L -330.119 -598.334 L -322.373 -610.057 C -311.781 -625.507 -300.153 -640.234 -287.583 -654.122 L -290.865 -657.698 L -290.885 -657.683 L -287.505 -654.221 C -286.432 -655.619 -285.583 -656.897 -284.742 -658.288 C -283.904 -659.655 -283.143 -661.061 -282.418 -662.485 C -280.988 -665.343 -279.8 -668.321 -278.838 -671.378 C -277.847 -674.43 -277.254 -677.604 -276.806 -680.793 L -276.6 -683.205 L -276.505 -684.412 L -276.496 -685.624 L -276.481 -688.05 C -276.521 -688.857 -276.596 -689.664 -276.653 -690.471 C -277.17 -696.926 -279.07 -703.265 -282.076 -708.954 C -285.07 -714.664 -289.09 -719.712 -293.547 -724.196 L -295.231 -725.872 L -296.077 -726.706 L -296.975 -727.476 L -300.569 -730.55 C -301.774 -731.564 -303.075 -732.444 -304.324 -733.396 C -305.593 -734.319 -306.823 -735.308 -308.16 -736.119 C -310.796 -737.8 -313.377 -739.589 -316.129 -741.055 L -320.201 -743.359 C -321.564 -744.115 -322.978 -744.763 -324.364 -745.47 C -335.498 -751.035 -347.112 -755.434 -358.868 -759.258 L -358.957 -754.079 C -355.392 -755.021 -351.62 -755.834 -347.907 -756.567 C -344.174 -757.296 -340.423 -757.959 -336.655 -758.524 C -329.124 -759.677 -321.544 -760.547 -313.944 -761.13 C -298.745 -762.276 -283.46 -762.355 -268.283 -761.16 C -253.112 -759.958 -238.036 -757.533 -223.371 -753.585 L -220.617 -752.861 C -219.702 -752.61 -218.799 -752.317 -217.89 -752.049 L -212.442 -750.4 L -207.063 -748.547 L -204.376 -747.615 L -201.728 -746.581 L -196.434 -744.507 L -191.229 -742.223 L -188.63 -741.075 L -186.081 -739.821 L -180.982 -737.316 L -179.556 -736.616 L -178.193 -737.316 C -152.149 -750.715 -124.584 -761.136 -96.203 -768.303 C -67.821 -775.473 -38.633 -779.378 -9.377 -780.026 L -3.89 -780.098 C -2.062 -780.104 -.232 -780.19 1.596 -780.104 L 12.565 -779.804 C 19.887 -779.769 27.169 -779.001 34.463 -778.469 L 39.93 -778.029 L 45.37 -777.325 L 56.249 -775.92 L 58.969 -775.569 L 61.668 -775.088 L 67.064 -774.111 L 77.857 -772.162 C 106.493 -766.203 134.415 -756.947 160.972 -744.753 C 174.312 -738.776 187.121 -731.694 199.706 -724.282 C 201.309 -723.405 202.802 -722.346 204.349 -721.376 L 208.953 -718.406 L 213.559 -715.438 C 215.085 -714.437 216.654 -713.498 218.117 -712.401 L 227.036 -706.038 L 231.497 -702.858 C 232.959 -701.766 234.373 -700.607 235.813 -699.485 C 258.93 -681.623 280.065 -661.213 298.727 -638.742 L 305.496 -630.133 L 308.875 -625.823 L 310.559 -623.664 L 312.142 -621.43 L 318.476 -612.496 C 319.52 -610.999 320.615 -609.537 321.617 -608.012 L 324.565 -603.397 L 330.485 -594.185 C 331.508 -592.671 332.354 -591.05 333.283 -589.479 L 336.017 -584.735 L 338.751 -579.991 C 339.646 -578.4 340.62 -576.854 341.416 -575.209 L 346.417 -565.467 L 348.919 -560.596 C 349.736 -558.964 350.443 -557.278 351.211 -555.623 L 355.731 -545.648 L 356.862 -543.154 C 357.234 -542.321 357.543 -541.461 357.887 -540.616 L 359.899 -535.523 L 363.928 -525.339 L 367.453 -514.97 L 369.214 -509.784 L 370.094 -507.191 L 370.844 -504.558 L 373.846 -494.024 L 375.344 -488.757 L 376.579 -483.421 L 379.054 -472.75 L 379.672 -470.083 L 380.155 -467.387 L 381.123 -461.996 L 383.061 -451.214 L 384.461 -440.349 L 385.168 -434.917 C 385.408 -433.106 385.662 -431.297 385.769 -429.473 L 386.634 -418.55 L 387.067 -413.087 C 387.238 -411.268 387.204 -409.437 387.282 -407.613 L 387.595 -396.657 C 387.629 -394.831 387.74 -393.004 387.711 -391.178 L 387.589 -385.699 L 387.348 -374.738 L 387.287 -371.998 L 387.088 -369.265 L 386.688 -363.798 L 385.894 -352.863 C 385.498 -349.231 385.01 -345.608 384.584 -341.979 L 383.922 -336.536 C 383.69 -334.723 383.522 -332.9 383.17 -331.106 L 381.298 -320.3 L 380.363 -314.896 C 380.075 -313.089 379.591 -311.323 379.214 -309.535 C 377.554 -302.415 376.177 -295.22 374.055 -288.215 L 371.113 -277.643 C 370.07 -274.138 368.835 -270.692 367.705 -267.212 L 365.981 -262.002 C 365.395 -260.27 364.877 -258.511 364.18 -256.818 L 360.228 -246.576 L 358.251 -241.453 C 357.578 -239.751 356.786 -238.099 356.06 -236.419 L 351.608 -226.377 L 350.496 -223.866 C 350.122 -223.031 349.684 -222.226 349.28 -221.404 L 346.812 -216.497 L 341.875 -206.679 L 336.467 -197.111 L 333.763 -192.326 C 333.304 -191.533 332.879 -190.72 332.393 -189.944 L 330.926 -187.62 L 325.06 -178.319 C 324.065 -176.78 323.141 -175.193 322.089 -173.693 L 318.935 -169.188 L 312.626 -160.176 C 312.112 -159.416 311.562 -158.683 310.992 -157.964 L 309.309 -155.79 L 305.941 -151.439 C 287.952 -128.273 267.472 -106.951 244.629 -88.447 C 221.855 -69.873 197.018 -53.796 170.675 -40.656 C 169.06 -39.77 167.352 -39.078 165.688 -38.291 L 160.67 -35.993 L 155.65 -33.694 C 153.969 -32.948 152.326 -32.109 150.601 -31.466 L 140.348 -27.366 L 135.221 -25.315 C 133.512 -24.63 131.748 -24.095 130.015 -23.477 C 123.041 -21.117 116.133 -18.542 109.01 -16.65 L 98.396 -13.581 C 94.83 -12.663 91.23 -11.871 87.647 -11.02 C 58.947 -4.355 29.488 -.935 0 -.8 " fill="#f6f5f7"/>
<path transform="matrix(1,0,0,-1,909.3047,763.8604)" d="M 0 0 L 0 0 C 89.409 65.192 147.525 170.726 147.525 289.849 C 147.525 487.846 -12.983 648.354 -210.979 648.354 C -408.977 648.354 -569.485 487.846 -569.485 289.849 C -569.485 91.853 -408.977 -68.655 -210.979 -68.655 C -177.375 -68.655 -144.854 -64.02 -114.011 -55.374 L -111.407 -55.058 C -11.281 -100.287 88.048 -67.467 88.048 -67.467 C 1.327 -43.392 0 0 0 0 " fill="#8723c1"/>
<path transform="matrix(1,0,0,-1,910.0234,764.2119)" d="M 0 0 C .057 .068 .09 .166 .09 .251 C .09 .287 .097 .2 .1 .182 L .121 -.028 L .18 -.458 C .217 -.745 .276 -1.035 .323 -1.323 C .438 -1.9 .558 -2.477 .709 -3.05 C .989 -4.198 1.359 -5.328 1.745 -6.45 C 2.544 -8.687 3.543 -10.854 4.667 -12.951 C 6.901 -17.156 9.73 -21.033 12.871 -24.615 C 19.189 -31.769 26.777 -37.743 34.917 -42.759 C 43.07 -47.776 51.744 -51.945 60.697 -55.409 C 69.643 -58.896 78.824 -61.789 88.13 -64.231 L 97.836 -66.778 L 88.268 -69.958 C 84.048 -71.36 79.96 -72.48 75.772 -73.555 C 71.603 -74.614 67.412 -75.57 63.203 -76.435 C 54.787 -78.163 46.302 -79.55 37.768 -80.569 C 20.701 -82.612 3.455 -83.335 -13.771 -82.63 C -30.991 -81.919 -48.205 -79.796 -65.091 -75.989 C -73.542 -74.124 -81.896 -71.8 -90.146 -69.139 C -98.386 -66.443 -106.502 -63.347 -114.46 -59.874 L -111.441 -60.335 L -114.042 -60.682 L -113.191 -60.512 C -156.377 -73.207 -202.021 -77.46 -246.965 -73.552 C -291.933 -69.646 -336.21 -57.131 -376.689 -36.917 C -386.812 -31.87 -396.706 -26.356 -406.321 -20.39 C -415.924 -14.402 -425.25 -7.971 -434.262 -1.122 C -452.274 12.585 -469.078 27.911 -484.243 44.736 C -499.417 61.548 -513.063 79.751 -524.865 99.089 C -536.641 118.441 -546.619 138.885 -554.615 160.075 C -562.582 181.276 -568.545 203.22 -572.448 225.513 C -576.3 247.817 -578.028 270.462 -577.749 293.055 C -577.234 338.255 -568.187 383.311 -551.349 425.185 C -534.517 467.08 -509.716 505.654 -478.925 538.534 C -448.141 571.424 -411.289 598.608 -370.715 618.1 C -330.165 637.625 -285.975 649.495 -241.16 652.892 C -218.755 654.591 -196.214 654.229 -173.886 651.858 C -151.56 649.458 -129.469 644.955 -107.988 638.473 C -65.018 625.524 -24.551 604.468 10.677 576.786 C 45.946 549.158 75.998 514.967 98.848 476.518 C 121.764 438.102 137.301 395.373 144.572 351.329 C 146.395 340.319 147.713 329.227 148.516 318.101 C 149.289 306.973 149.581 295.814 149.326 284.668 C 149.288 279.093 148.919 273.529 148.651 267.962 C 148.187 262.408 147.824 256.846 147.131 251.314 C 146.58 245.769 145.706 240.263 144.918 234.748 C 143.963 229.259 143.061 223.762 141.871 218.317 C 132.819 174.694 115.629 132.78 91.259 95.566 C 85.229 86.224 78.643 77.252 71.768 68.525 C 70.016 66.37 68.343 64.15 66.526 62.048 L 61.143 55.688 C 57.438 51.549 53.765 47.383 49.891 43.401 C 42.199 35.394 34.232 27.641 25.818 20.397 C 23.767 18.528 21.582 16.812 19.47 15.013 L 16.276 12.345 L 13.008 9.769 L 9.739 7.192 L 8.104 5.905 L 6.496 4.717 Z M -1.437 .703 L 5.341 5.961 L 7.051 7.267 L 8.662 8.567 L 11.885 11.169 L 15.105 13.77 L 18.252 16.462 C 20.332 18.275 22.483 20.007 24.502 21.891 C 32.785 29.191 40.613 36.991 48.159 45.035 C 51.961 49.035 55.561 53.217 59.189 57.368 L 64.46 63.744 C 66.238 65.852 67.873 68.075 69.586 70.234 C 76.307 78.974 82.732 87.947 88.601 97.278 C 112.316 134.445 128.934 176.051 137.422 219.218 C 138.542 224.604 139.377 230.04 140.267 235.466 C 140.988 240.917 141.798 246.356 142.284 251.834 C 142.915 257.296 143.215 262.788 143.62 268.269 C 143.826 273.761 144.137 279.25 144.119 284.747 C 144.259 295.736 143.86 306.729 142.988 317.679 C 142.087 328.627 140.68 339.53 138.778 350.342 C 131.188 393.592 115.502 435.377 92.663 472.799 C 69.884 510.252 40.14 543.39 5.475 570.092 C -29.166 596.832 -68.803 617.004 -110.733 629.244 C -131.694 635.371 -153.214 639.563 -174.935 641.707 C -196.656 643.834 -218.567 643.958 -240.302 642.172 C -283.775 638.565 -326.495 626.75 -365.604 607.579 C -404.734 588.439 -440.171 561.896 -469.669 529.928 C -499.18 497.967 -522.687 460.517 -538.524 420.084 C -554.384 379.66 -562.578 336.302 -562.587 292.939 C -562.622 271.259 -560.706 249.594 -556.815 228.298 C -552.914 207.004 -547.033 186.088 -539.281 165.896 C -531.567 145.691 -521.966 126.21 -510.654 107.779 C -499.385 89.322 -486.397 71.912 -471.919 55.843 C -457.435 39.782 -441.558 24.959 -424.402 11.765 C -415.832 5.161 -406.955 -1.048 -397.81 -6.835 C -388.678 -12.643 -379.28 -18.036 -369.646 -22.98 C -350.384 -32.875 -330.188 -40.981 -309.393 -47.105 C -288.6 -53.243 -267.229 -57.421 -245.64 -59.719 C -224.048 -62.011 -202.215 -62.24 -180.536 -60.564 C -169.697 -59.688 -158.891 -58.357 -148.169 -56.494 C -137.437 -54.689 -126.799 -52.322 -116.269 -49.533 L -115.776 -49.402 L -115.418 -49.363 L -112.811 -49.076 L -111.177 -48.896 L -109.791 -49.537 C -102.252 -53.024 -94.544 -56.161 -86.693 -58.919 C -78.833 -61.645 -70.853 -64.057 -62.753 -66.03 C -46.563 -70.016 -29.987 -72.56 -13.284 -73.693 C 3.419 -74.827 20.246 -74.579 36.965 -73.031 C 45.323 -72.248 53.664 -71.194 61.938 -69.756 C 66.077 -69.043 70.199 -68.239 74.294 -67.336 C 78.365 -66.433 82.509 -65.427 86.39 -64.273 L 86.528 -70 C 77.116 -67.198 67.814 -63.972 58.777 -60.068 C 49.738 -56.184 40.979 -51.575 32.766 -46.097 C 24.566 -40.625 16.929 -34.157 10.691 -26.448 C 7.585 -22.595 4.813 -18.446 2.666 -13.969 C 1.585 -11.738 .638 -9.437 -.089 -7.058 C -.439 -5.864 -.771 -4.665 -1.014 -3.44 C -1.145 -2.831 -1.244 -2.212 -1.338 -1.593 C -1.375 -1.278 -1.424 -.971 -1.45 -.653 L -1.492 -.177 L -1.507 .066 L -1.516 .225 C -1.52 .386 -1.489 .559 -1.437 .703 " fill="#f9f5fc"/>
<path transform="matrix(1,0,0,-1,728.3447,122.6001)" d="M 0 0 C -3.576 -26.881 -2.271 -66.018 16.753 -115.9 C 24.613 -136.509 35.354 -155.875 48.02 -173.934 C 62.514 -194.6 85.104 -239.604 65.688 -301.47 C 65.688 -301.47 48.919 -284.382 -20.376 -247.16 C -73.09 -218.843 -82.355 -151.581 -72.865 -107.348 C -70.797 -97.705 -57.036 -97.635 -54.967 -107.277 C -50.346 -128.803 -40.583 -155.944 -19.968 -172.718 C -19.968 -172.718 -74.266 -84.756 -16.832 6.055 C -11.575 14.367 1.298 9.749 0 0 " fill="#ffffff"/>
<path transform="matrix(1,0,0,-1,464.5239,84.879398)" d="M 0 0 C -1.864 -54.047 13.051 -162.556 142.54 -251.47 C 142.54 -251.47 194.094 -280.629 239.536 -298.774 C 284.978 -316.919 344.359 -358.557 339.708 -419.297 C 339.708 -419.297 314.763 -408.438 282.569 -423.076 C 264.416 -431.33 249.657 -445.473 239.581 -462.681 C 229.086 -480.602 202.914 -511.731 152.074 -499.047 C 145.649 -497.445 144.772 -488.613 150.77 -485.806 C 162.684 -480.229 178.653 -469.937 193.933 -451.191 C 202.25 -440.989 211.756 -431.796 222.608 -424.347 C 227.713 -420.843 233.68 -417.14 240.51 -413.501 C 240.51 -413.501 209.712 -419.211 186.919 -441.396 C 175.783 -452.236 162.779 -461.065 148.142 -466.287 C 124.693 -474.653 92.255 -477.276 65.439 -446.372 C 61.214 -441.501 65.285 -433.96 71.682 -434.768 C 88.096 -436.84 113.368 -437.385 133.488 -426.114 C 166.108 -407.84 174.301 -407.396 182.801 -403.903 C 182.801 -403.903 159.047 -400.612 107.282 -411.168 C 63.59 -420.079 21.893 -395.001 -2.707 -359.014 C -6.789 -353.041 -.428 -345.506 6.12 -348.583 C 22.579 -356.317 45.024 -365.324 58.392 -364.246 C 81.396 -362.391 98.824 -358.347 98.824 -358.347 C 98.824 -358.347 47.778 -363.542 4.876 -316.498 C -12.594 -297.339 -22.288 -280.284 -27.642 -266.795 C -30.544 -259.482 -21.104 -253.581 -15.841 -259.429 C .425 -277.504 26.931 -299.076 60.934 -299.34 C 60.934 -299.34 -25.732 -270.105 -33.378 -175.913 C -33.936 -169.043 -25.365 -165.468 -20.927 -170.742 C -7.048 -187.233 15.498 -211.473 33.371 -218.493 C 33.371 -218.493 -11.169 -185.952 -31.238 -115.304 C -43.493 -72.163 -27.627 -26.039 -13.415 3.338 C -10.091 10.209 .263 7.628 0 0 " fill="#ffffff"/>
<path transform="matrix(1,0,0,-1,691.334,589.7217)" d="M 0 0 C 0 0 -31.513 -72.168 -142.119 -80.8 C -142.119 -80.8 -179.971 -77.271 -209.37 -68.805 C -220.361 -65.639 -228.665 -78.728 -221.122 -87.326 C -204.998 -105.705 -174.695 -122.559 -119.451 -107.522 C -119.451 -107.522 -132.805 -121.222 -170.388 -120.827 C -182.45 -120.701 -186.516 -136.885 -175.789 -142.401 C -152.852 -154.196 -117.376 -158.002 -72.141 -117.888 C -72.141 -117.888 -79.37 -129.145 -94.704 -140.696 C -105.465 -148.804 -95.615 -165.685 -83.275 -160.276 C -63.973 -151.817 -44.863 -134.841 -32.547 -102.35 C 1.195 -13.34 0 0 0 0 " fill="#ffffff"/>
<path transform="matrix(1,0,0,-1,672.4287,696.8379)" d="M 0 0 C 0 0 134.25 42.112 143.599 147.834 C 152.948 253.556 133.374 264.214 133.374 264.214 C 133.374 264.214 146.489 289.887 168.88 307.29 C 191.231 324.663 222.377 325.174 245.963 309.519 C 251.813 305.635 258.161 301.067 263.031 296.647 C 275.146 285.652 297.093 289.605 297.093 289.605 C 297.093 289.605 254.777 281.178 236.541 231.218 C 236.541 231.218 221.09 198.182 195.029 129.812 C 168.968 61.442 97.575 -25.554 0 0 " fill="#ffffff"/>
</g>
</g>
</g>
</svg>
